<svg width="123" height="26" viewBox="0 0 123 26" fill="none" xmlns="http://www.w3.org/2000/svg">
<path d="M0.772 26V0.619998H17.368V4.292H5.38V11.456H16.612V15.128H5.38V26H0.772ZM20.9868 26V0.619998H37.8708V4.292H25.4148V11.276H37.0788V14.948H25.4148V22.328H37.8708V26H20.9868ZM42.4673 26V0.619998H59.3513V4.292H46.8953V11.276H58.5593V14.948H46.8953V22.328H59.3513V26H42.4673ZM63.9478 26V0.619998H68.5558V22.076H80.7238V26H63.9478ZM90.5346 24.56V17.252H83.4066V14.084H90.5346V6.992H93.8466V14.084H100.975V17.252H93.8466V24.56H90.5346ZM112.121 24.56V17.252H104.993V14.084H112.121V6.992H115.433V14.084H122.561V17.252H115.433V24.56H112.121Z" fill="url(#paint0_linear_2_1314)"/>
<defs>
<linearGradient id="paint0_linear_2_1314" x1="-2" y1="25" x2="125" y2="25" gradientUnits="userSpaceOnUse">
<stop offset="0.0208333" stop-color="#AEA8A0"/>
<stop offset="0.140625" stop-color="#8498D2"/>
<stop offset="0.317708" stop-color="#B6A293"/>
<stop offset="0.848958" stop-color="#9E3029"/>
</linearGradient>
</defs>
</svg>
